<svg width="200" height="200" viewBox="0 0 200 200" xmlns="http://www.w3.org/2000/svg">
  <!-- 고양이 몸체 -->
  <ellipse cx="100" cy="130" rx="45" ry="35" fill="#FF8C42" stroke="#E87722" stroke-width="2"/>

  <!-- 고양이 머리 -->
  <circle cx="100" cy="80" r="35" fill="#FF8C42" stroke="#E87722" stroke-width="2"/>

  <!-- 고양이 귀 -->
  <path d="M75 60 L70 35 L85 50 Z" fill="#FF8C42" stroke="#E87722" stroke-width="2"/>
  <path d="M125 60 L130 35 L115 50 Z" fill="#FF8C42" stroke="#E87722" stroke-width="2"/>

  <!-- 귀 안쪽 -->
  <path d="M76 55 L74 42 L82 52 Z" fill="#FFB366"/>
  <path d="M124 55 L126 42 L118 52 Z" fill="#FFB366"/>

  <!-- 고양이 눈 -->
  <ellipse cx="88" cy="75" rx="6" ry="8" fill="#2C3E50"/>
  <ellipse cx="112" cy="75" rx="6" ry="8" fill="#2C3E50"/>

  <!-- 눈 반사광 -->
  <ellipse cx="90" cy="73" rx="2" ry="3" fill="#FFFFFF"/>
  <ellipse cx="114" cy="73" rx="2" ry="3" fill="#FFFFFF"/>

  <!-- 고양이 코 -->
  <path d="M100 85 L95 90 L105 90 Z" fill="#E74C3C"/>

  <!-- 고양이 입 -->
  <path d="M100 92 Q95 96 90 94" stroke="#2C3E50" stroke-width="2" fill="none" stroke-linecap="round"/>
  <path d="M100 92 Q105 96 110 94" stroke="#2C3E50" stroke-width="2" fill="none" stroke-linecap="round"/>

  <!-- 수염 -->
  <line x1="65" y1="80" x2="45" y2="78" stroke="#2C3E50" stroke-width="2" stroke-linecap="round"/>
  <line x1="65" y1="85" x2="45" y2="85" stroke="#2C3E50" stroke-width="2" stroke-linecap="round"/>
  <line x1="65" y1="90" x2="45" y2="92" stroke="#2C3E50" stroke-width="2" stroke-linecap="round"/>

  <line x1="135" y1="80" x2="155" y2="78" stroke="#2C3E50" stroke-width="2" stroke-linecap="round"/>
  <line x1="135" y1="85" x2="155" y2="85" stroke="#2C3E50" stroke-width="2" stroke-linecap="round"/>
  <line x1="135" y1="90" x2="155" y2="92" stroke="#2C3E50" stroke-width="2" stroke-linecap="round"/>

  <!-- 고양이 발 -->
  <ellipse cx="75" cy="155" rx="12" ry="8" fill="#FF8C42" stroke="#E87722" stroke-width="2"/>
  <ellipse cx="125" cy="155" rx="12" ry="8" fill="#FF8C42" stroke="#E87722" stroke-width="2"/>

  <!-- 고양이 꼬리 -->
  <path d="M55 130 Q30 120 25 95 Q22 85 30 80" stroke="#E87722" stroke-width="8" fill="none" stroke-linecap="round"/>
  <path d="M55 130 Q30 120 25 95 Q22 85 30 80" stroke="#FF8C42" stroke-width="6" fill="none" stroke-linecap="round"/>

  <!-- 몸체 패턴 -->
  <ellipse cx="85" cy="120" rx="8" ry="5" fill="#E87722" opacity="0.6"/>
  <ellipse cx="115" cy="125" rx="6" ry="4" fill="#E87722" opacity="0.6"/>
  <ellipse cx="100" cy="140" rx="7" ry="4" fill="#E87722" opacity="0.6"/>
</svg>